<svg xmlns="http://www.w3.org/2000/svg" xmlns:xlink="http://www.w3.org/1999/xlink" viewBox="0 0 457.02 246.27"><defs><style>.cls-1{font-size:71.08px;fill:#231815;font-family:Tensentype-MeiHeiJ, Tensentype MeiHeiJ;}.cls-10,.cls-11,.cls-2,.cls-3,.cls-4,.cls-5,.cls-6,.cls-7,.cls-8,.cls-9{fill:none;stroke-linecap:round;stroke-miterlimit:10;stroke-width:9px;}.cls-2{stroke:url(#未命名的渐变_113);}.cls-3{stroke:url(#未命名的渐变_113-2);}.cls-4{stroke:url(#未命名的渐变_113-3);}.cls-5{stroke:url(#未命名的渐变_113-4);}.cls-6{stroke:url(#未命名的渐变_113-5);}.cls-7{stroke:url(#未命名的渐变_113-7);}.cls-8{stroke:url(#未命名的渐变_113-9);}.cls-9{stroke:url(#未命名的渐变_113-10);}.cls-10{stroke:url(#未命名的渐变_113-11);}.cls-11{stroke:url(#未命名的渐变_113-12);}</style><linearGradient id="未命名的渐变_113" x1="223.61" y1="74.4" x2="374.34" y2="74.4" gradientUnits="userSpaceOnUse"><stop offset="0" stop-color="#2fa1d7"/><stop offset="0.85" stop-color="#823790"/></linearGradient><linearGradient id="未命名的渐变_113-2" x1="195.93" y1="59.59" x2="260.28" y2="59.59" xlink:href="#未命名的渐变_113"/><linearGradient id="未命名的渐变_113-3" x1="81.87" y1="45.26" x2="232.61" y2="45.26" xlink:href="#未命名的渐变_113"/><linearGradient id="未命名的渐变_113-4" x1="195.93" y1="60.07" x2="260.28" y2="60.07" xlink:href="#未命名的渐变_113"/><linearGradient id="未命名的渐变_113-5" x1="81.87" y1="92.19" x2="170.22" y2="92.19" xlink:href="#未命名的渐变_113"/><linearGradient id="未命名的渐变_113-7" x1="285.99" y1="27.46" x2="374.34" y2="27.46" xlink:href="#未命名的渐变_113"/><linearGradient id="未命名的渐变_113-9" x1="318.75" y1="59.83" x2="327.75" y2="59.83" xlink:href="#未命名的渐变_113"/><linearGradient id="未命名的渐变_113-10" x1="350.45" y1="59.83" x2="359.45" y2="59.83" xlink:href="#未命名的渐变_113"/><linearGradient id="未命名的渐变_113-11" x1="128.46" y1="59.83" x2="137.46" y2="59.83" xlink:href="#未命名的渐变_113"/><linearGradient id="未命名的渐变_113-12" x1="96.76" y1="59.83" x2="105.76" y2="59.83" xlink:href="#未命名的渐变_113"/></defs><title>资源 2DNA2</title><g id="图层_2" data-name="图层 2"><g id="图层_1-2" data-name="图层 1"><text class="cls-1" transform="translate(0 227.25)">BIO.INFO.AI</text><path class="cls-2" d="M369.84,115.16s-79.35-1.41-79.35-45.93-62.38-34.66-62.38-34.66"/><ellipse class="cls-3" cx="228.11" cy="59.59" rx="27.67" ry="24.37"/><path class="cls-4" d="M86.37,4.5s79.35,1.41,79.35,45.93,62.39,34.66,62.39,34.66"/><ellipse class="cls-5" cx="228.11" cy="60.07" rx="27.67" ry="24.37"/><path class="cls-6" d="M86.37,115.16s79.35-1.41,79.35-45.93"/><ellipse class="cls-3" cx="228.11" cy="59.59" rx="27.67" ry="24.37"/><path class="cls-7" d="M369.84,4.5s-79.35,1.41-79.35,45.93"/><ellipse class="cls-5" cx="228.11" cy="60.07" rx="27.67" ry="24.37"/><line class="cls-8" x1="323.25" y1="106.58" x2="323.25" y2="13.08"/><line class="cls-9" x1="354.95" y1="113.95" x2="354.95" y2="5.71"/><line class="cls-10" x1="132.96" y1="13.08" x2="132.96" y2="106.58"/><line class="cls-11" x1="101.26" y1="5.71" x2="101.26" y2="113.95"/></g></g></svg>